# xmcd
#
# Track frame offsets: 
#        187
#        19367
#        37115
#        55522
#        70525
#        92290
#        123225
#        135792
#        159150
#
# Disc length: 2589 seconds
#
# Revision: 0
# Processed by: cddbd v1.5.2PL0 Copyright (c) Steve Scherf et al.
# Submitted via: ExactAudioCopyFreeDBPlugin 1.0
#
DISCID=5f0a1b09
DTITLE=Gary Moore - 1982 - Corridors Of Power
DYEAR=1982
DGENRE=
TTITLE0=Don't Take Me For A Loser
TTITLE1=Always Gonna Love You
TTITLE2=Wishing Well
TTITLE3=Gonna Break My Heart Again
TTITLE4=Falling In Love With You
TTITLE5=End Of The World
TTITLE6=Rockin' Every Night
TTITLE7=Cold Hearted
TTITLE8=I Can't Wait Until Tomorrow
EXTD=
EXTT0=
EXTT1=
EXTT2=
EXTT3=
EXTT4=
EXTT5=
EXTT6=
EXTT7=
EXTT8=
PLAYORDER=
